{
  "asset": {
    "generator": "Codex",
    "version": "2.0"
  },
  "extensionsUsed": ["KHR_materials_unlit"],
  "scene": 0,
  "scenes": [
    {
      "nodes": [0, 1, 2, 3, 4, 5, 6, 7]
    }
  ],
  "nodes": [
    {
      "mesh": 0,
      "translation": [0, 1.3, 0],
      "scale": [0.7, 2.6, 0.7]
    },
    {
      "mesh": 0,
      "translation": [-0.42, 1.0, 0],
      "scale": [0.24, 0.8, 0.24]
    },
    {
      "mesh": 0,
      "translation": [-0.66, 1.34, 0],
      "scale": [0.56, 0.22, 0.24]
    },
    {
      "mesh": 0,
      "translation": [-0.88, 1.66, 0],
      "scale": [0.22, 0.64, 0.22]
    },
    {
      "mesh": 0,
      "translation": [0.44, 1.44, 0],
      "scale": [0.24, 0.92, 0.24]
    },
    {
      "mesh": 0,
      "translation": [0.68, 1.84, 0],
      "scale": [0.52, 0.22, 0.24]
    },
    {
      "mesh": 0,
      "translation": [0.9, 2.1, 0],
      "scale": [0.22, 0.52, 0.22]
    },
    {
      "mesh": 0,
      "translation": [0, 2.78, 0],
      "scale": [0.26, 0.36, 0.26]
    }
  ],
  "materials": [
    {
      "name": "body",
      "pbrMetallicRoughness": {
        "baseColorFactor": [0.23, 0.56, 0.27, 1],
        "metallicFactor": 0,
        "roughnessFactor": 1
      },
      "extensions": {
        "KHR_materials_unlit": {}
      }
    }
  ],
  "meshes": [
    {
      "name": "body",
      "primitives": [
        {
          "attributes": {
            "POSITION": 0
          },
          "material": 0
        }
      ]
    }
  ],
  "accessors": [
    {
      "bufferView": 0,
      "componentType": 5126,
      "count": 36,
      "type": "VEC3",
      "min": [-0.5, -0.5, -0.5],
      "max": [0.5, 0.5, 0.5]
    }
  ],
  "bufferViews": [
    {
      "buffer": 0,
      "byteOffset": 0,
      "byteLength": 432
    }
  ],
  "buffers": [
    {
      "byteLength": 432,
      "uri": "data:application/octet-stream;base64,"
    }
  ]
}
