{
  "asset": {
    "generator": "Codex",
    "version": "2.0"
  },
  "extensionsUsed": ["KHR_materials_unlit"],
  "scene": 0,
  "scenes": [
    {
      "nodes": [0, 1, 2, 3, 4, 5]
    }
  ],
  "nodes": [
    {
      "mesh": 0,
      "translation": [0, 1.1, 0],
      "scale": [0.6, 2.2, 0.6]
    },
    {
      "mesh": 0,
      "translation": [-0.55, 1.15, 0],
      "scale": [0.26, 1.0, 0.26]
    },
    {
      "mesh": 0,
      "translation": [-0.88, 1.6, 0],
      "scale": [0.8, 0.24, 0.26]
    },
    {
      "mesh": 0,
      "translation": [0.55, 1.55, 0],
      "scale": [0.26, 1.1, 0.26]
    },
    {
      "mesh": 0,
      "translation": [0.88, 2.05, 0],
      "scale": [0.8, 0.24, 0.26]
    },
    {
      "mesh": 0,
      "translation": [0, 2.35, 0],
      "scale": [0.32, 0.3, 0.32]
    }
  ],
  "materials": [
    {
      "name": "body",
      "pbrMetallicRoughness": {
        "baseColorFactor": [0.23, 0.56, 0.27, 1],
        "metallicFactor": 0,
        "roughnessFactor": 1
      },
      "extensions": {
        "KHR_materials_unlit": {}
      }
    }
  ],
  "meshes": [
    {
      "name": "body",
      "primitives": [
        {
          "attributes": {
            "POSITION": 0
          },
          "material": 0
        }
      ]
    }
  ],
  "accessors": [
    {
      "bufferView": 0,
      "componentType": 5126,
      "count": 36,
      "type": "VEC3",
      "min": [-0.5, -0.5, -0.5],
      "max": [0.5, 0.5, 0.5]
    }
  ],
  "bufferViews": [
    {
      "buffer": 0,
      "byteOffset": 0,
      "byteLength": 432
    }
  ],
  "buffers": [
    {
      "byteLength": 432,
      "uri": "data:application/octet-stream;base64,"
    }
  ]
}
