{
  "asset": {
    "generator": "Codex",
    "version": "2.0"
  },
  "extensionsUsed": ["KHR_materials_unlit"],
  "scene": 0,
  "scenes": [
    {
      "nodes": [0, 1, 2, 3, 4, 5, 6]
    }
  ],
  "nodes": [
    {
      "mesh": 0,
      "translation": [0, 0.65, 0],
      "scale": [0.32, 1.3, 0.32]
    },
    {
      "mesh": 1,
      "translation": [0, 2.0, 0],
      "scale": [1.6, 1.3, 1.6]
    },
    {
      "mesh": 1,
      "translation": [0, 3.0, 0],
      "scale": [1.0, 0.8, 1.0]
    },
    {
      "mesh": 1,
      "translation": [-0.8, 2.2, 0.1],
      "scale": [0.9, 0.8, 0.9]
    },
    {
      "mesh": 1,
      "translation": [0.8, 2.15, -0.1],
      "scale": [0.95, 0.85, 0.95]
    },
    {
      "mesh": 1,
      "translation": [0.1, 2.15, 0.85],
      "scale": [0.85, 0.75, 0.85]
    },
    {
      "mesh": 1,
      "translation": [-0.1, 2.1, -0.8],
      "scale": [0.85, 0.75, 0.85]
    }
  ],
  "materials": [
    {
      "name": "trunk",
      "pbrMetallicRoughness": {
        "baseColorFactor": [0.42, 0.27, 0.15, 1],
        "metallicFactor": 0,
        "roughnessFactor": 1
      },
      "extensions": {
        "KHR_materials_unlit": {}
      }
    },
    {
      "name": "foliage",
      "pbrMetallicRoughness": {
        "baseColorFactor": [0.24, 0.55, 0.2, 1],
        "metallicFactor": 0,
        "roughnessFactor": 1
      },
      "extensions": {
        "KHR_materials_unlit": {}
      }
    }
  ],
  "meshes": [
    {
      "name": "trunk",
      "primitives": [
        {
          "attributes": {
            "POSITION": 0
          },
          "material": 0
        }
      ]
    },
    {
      "name": "foliage",
      "primitives": [
        {
          "attributes": {
            "POSITION": 0
          },
          "material": 1
        }
      ]
    }
  ],
  "accessors": [
    {
      "bufferView": 0,
      "componentType": 5126,
      "count": 36,
      "type": "VEC3",
      "min": [-0.5, -0.5, -0.5],
      "max": [0.5, 0.5, 0.5]
    }
  ],
  "bufferViews": [
    {
      "buffer": 0,
      "byteOffset": 0,
      "byteLength": 432
    }
  ],
  "buffers": [
    {
      "byteLength": 432,
      "uri": "data:application/octet-stream;base64,"
    }
  ]
}
