{
  "asset": {
    "generator": "Codex",
    "version": "2.0"
  },
  "extensionsUsed": ["KHR_materials_unlit"],
  "scene": 0,
  "scenes": [
    {
      "nodes": [0, 1, 2, 3, 4, 5, 6, 7, 8, 9, 10]
    }
  ],
  "nodes": [
    {
      "mesh": 0,
      "translation": [0, 0.35, 0],
      "scale": [0.22, 0.7, 0.22]
    },
    {
      "mesh": 0,
      "translation": [0.08, 1.0, 0.02],
      "scale": [0.2, 0.7, 0.2]
    },
    {
      "mesh": 0,
      "translation": [0.16, 1.65, -0.01],
      "scale": [0.18, 0.65, 0.18]
    },
    {
      "mesh": 0,
      "translation": [0.24, 2.25, 0],
      "scale": [0.16, 0.55, 0.16]
    },
    {
      "mesh": 1,
      "translation": [0.24, 2.7, 0],
      "scale": [0.35, 0.1, 0.35]
    },
    {
      "mesh": 1,
      "translation": [0.24, 2.75, 0],
      "rotation": [0, 0, 0, 1],
      "scale": [0.18, 0.04, 1.25]
    },
    {
      "mesh": 1,
      "translation": [0.24, 2.75, 0],
      "rotation": [0, 0.5, 0, 0.8660254],
      "scale": [0.18, 0.04, 1.25]
    },
    {
      "mesh": 1,
      "translation": [0.24, 2.75, 0],
      "rotation": [0, 0.8660254, 0, 0.5],
      "scale": [0.18, 0.04, 1.25]
    },
    {
      "mesh": 1,
      "translation": [0.24, 2.75, 0],
      "rotation": [0, 1, 0, 0],
      "scale": [0.18, 0.04, 1.25]
    },
    {
      "mesh": 1,
      "translation": [0.24, 2.75, 0],
      "rotation": [0, 0.8660254, 0, -0.5],
      "scale": [0.18, 0.04, 1.25]
    },
    {
      "mesh": 1,
      "translation": [0.24, 2.75, 0],
      "rotation": [0, 0.5, 0, -0.8660254],
      "scale": [0.18, 0.04, 1.25]
    }
  ],
  "materials": [
    {
      "name": "trunk",
      "pbrMetallicRoughness": {
        "baseColorFactor": [0.52, 0.35, 0.18, 1],
        "metallicFactor": 0,
        "roughnessFactor": 1
      },
      "extensions": {
        "KHR_materials_unlit": {}
      }
    },
    {
      "name": "foliage",
      "pbrMetallicRoughness": {
        "baseColorFactor": [0.2, 0.6, 0.24, 1],
        "metallicFactor": 0,
        "roughnessFactor": 1
      },
      "extensions": {
        "KHR_materials_unlit": {}
      }
    }
  ],
  "meshes": [
    {
      "name": "trunk",
      "primitives": [
        {
          "attributes": {
            "POSITION": 0
          },
          "material": 0
        }
      ]
    },
    {
      "name": "foliage",
      "primitives": [
        {
          "attributes": {
            "POSITION": 0
          },
          "material": 1
        }
      ]
    }
  ],
  "accessors": [
    {
      "bufferView": 0,
      "componentType": 5126,
      "count": 36,
      "type": "VEC3",
      "min": [-0.5, -0.5, -0.5],
      "max": [0.5, 0.5, 0.5]
    }
  ],
  "bufferViews": [
    {
      "buffer": 0,
      "byteOffset": 0,
      "byteLength": 432
    }
  ],
  "buffers": [
    {
      "byteLength": 432,
      "uri": "data:application/octet-stream;base64,"
    }
  ]
}
