{
  "asset": {
    "generator": "Codex",
    "version": "2.0"
  },
  "extensionsUsed": ["KHR_materials_unlit"],
  "scene": 0,
  "scenes": [
    {
      "nodes": [0, 1, 2, 3]
    }
  ],
  "nodes": [
    {
      "mesh": 0,
      "translation": [0, 0.6, 0],
      "scale": [0.28, 1.2, 0.28]
    },
    {
      "mesh": 1,
      "translation": [0, 0.8, 0],
      "scale": [1.9, 1.5, 1.9]
    },
    {
      "mesh": 1,
      "translation": [0, 1.7, 0],
      "scale": [1.45, 1.2, 1.45]
    },
    {
      "mesh": 1,
      "translation": [0, 2.45, 0],
      "scale": [1.05, 0.95, 1.05]
    }
  ],
  "materials": [
    {
      "name": "trunk",
      "pbrMetallicRoughness": {
        "baseColorFactor": [0.38, 0.24, 0.12, 1],
        "metallicFactor": 0,
        "roughnessFactor": 1
      },
      "extensions": {
        "KHR_materials_unlit": {}
      }
    },
    {
      "name": "foliage",
      "pbrMetallicRoughness": {
        "baseColorFactor": [0.11, 0.42, 0.17, 1],
        "metallicFactor": 0,
        "roughnessFactor": 1
      },
      "extensions": {
        "KHR_materials_unlit": {}
      }
    }
  ],
  "meshes": [
    {
      "name": "trunk",
      "primitives": [
        {
          "attributes": {
            "POSITION": 0
          },
          "material": 0
        }
      ]
    },
    {
      "name": "foliage",
      "primitives": [
        {
          "attributes": {
            "POSITION": 1
          },
          "material": 1
        }
      ]
    }
  ],
  "accessors": [
    {
      "bufferView": 0,
      "componentType": 5126,
      "count": 36,
      "type": "VEC3",
      "min": [-0.5, -0.5, -0.5],
      "max": [0.5, 0.5, 0.5]
    },
    {
      "bufferView": 1,
      "componentType": 5126,
      "count": 18,
      "type": "VEC3",
      "min": [-0.5, 0, -0.5],
      "max": [0.5, 1, 0.5]
    }
  ],
  "bufferViews": [
    {
      "buffer": 0,
      "byteOffset": 0,
      "byteLength": 432
    },
    {
      "buffer": 1,
      "byteOffset": 0,
      "byteLength": 216
    }
  ],
  "buffers": [
    {
      "byteLength": 432,
      "uri": "data:application/octet-stream;base64,"
    },
    {
      "byteLength": 216,
      "uri": "data:application/octet-stream;base64,"
    }
  ]
}
